<svg width="3650" height="965" viewBox="0 0 3650 965" fill="none" xmlns="http://www.w3.org/2000/svg">
	<path d="M988.425 230.388V754.909H867.218V230.388H988.425ZM1052.16 556.441C1052.16 515.803 1059.72 480.126 1074.84 449.411C1090.44 418.695 1111.47 395.068 1137.93 378.529C1164.39 361.99 1193.92 353.721 1226.53 353.721C1254.41 353.721 1278.75 359.391 1299.54 370.732C1320.8 382.073 1337.11 396.958 1348.45 415.388V359.391H1469.65V754.909H1348.45V698.913C1336.63 717.342 1320.09 732.227 1298.83 743.568C1278.04 754.909 1253.7 760.579 1225.82 760.579C1193.69 760.579 1164.39 752.31 1137.93 735.771C1111.47 718.759 1090.44 694.896 1074.84 664.181C1059.72 632.993 1052.16 597.08 1052.16 556.441ZM1348.45 557.15C1348.45 526.907 1339.94 503.044 1322.93 485.56C1306.39 468.076 1286.07 459.334 1261.97 459.334C1237.87 459.334 1217.32 468.076 1200.3 485.56C1183.77 502.572 1175.5 526.199 1175.5 556.441C1175.5 586.684 1183.77 610.784 1200.3 628.74C1217.32 646.224 1237.87 654.966 1261.97 654.966C1286.07 654.966 1306.39 646.224 1322.93 628.74C1339.94 611.256 1348.45 587.393 1348.45 557.15ZM1678.55 415.388C1690.36 396.958 1706.66 382.073 1727.46 370.732C1748.25 359.391 1772.58 353.721 1800.46 353.721C1833.07 353.721 1862.6 361.99 1889.07 378.529C1915.53 395.068 1936.32 418.695 1951.44 449.411C1967.03 480.126 1974.83 515.803 1974.83 556.441C1974.83 597.08 1967.03 632.993 1951.44 664.181C1936.32 694.896 1915.53 718.759 1889.07 735.771C1862.6 752.31 1833.07 760.579 1800.46 760.579C1773.06 760.579 1748.72 754.909 1727.46 743.568C1706.66 732.227 1690.36 717.578 1678.55 699.621V943.453H1557.34V359.391H1678.55V415.388ZM1851.5 556.441C1851.5 526.199 1842.99 502.572 1825.98 485.56C1809.44 468.076 1788.89 459.334 1764.31 459.334C1740.21 459.334 1719.66 468.076 1702.65 485.56C1686.11 503.044 1677.84 526.907 1677.84 557.15C1677.84 587.393 1686.11 611.256 1702.65 628.74C1719.66 646.224 1740.21 654.966 1764.31 654.966C1788.41 654.966 1808.97 646.224 1825.98 628.74C1842.99 610.784 1851.5 586.684 1851.5 556.441ZM2713.36 318.28C2692.09 318.28 2674.61 312.137 2660.91 299.851C2647.68 287.093 2641.06 271.499 2641.06 253.07C2641.06 234.168 2647.68 218.574 2660.91 206.288C2674.61 193.529 2692.09 187.15 2713.36 187.15C2734.15 187.15 2751.16 193.529 2764.39 206.288C2778.1 218.574 2784.95 234.168 2784.95 253.07C2784.95 271.499 2778.1 287.093 2764.39 299.851C2751.16 312.137 2734.15 318.28 2713.36 318.28ZM2773.61 359.391V754.909H2652.4V359.391H2773.61ZM3022.35 760.579C2987.85 760.579 2957.13 754.672 2930.2 742.859C2903.26 731.045 2882 714.979 2866.41 694.66C2850.81 673.868 2842.07 650.713 2840.18 625.196H2959.97C2961.39 638.9 2967.77 650.004 2979.11 658.51C2990.45 667.016 3004.39 671.269 3020.93 671.269C3036.05 671.269 3047.63 668.434 3055.66 662.763C3064.17 656.62 3068.42 648.823 3068.42 639.372C3068.42 628.031 3062.51 619.762 3050.7 614.564C3038.88 608.893 3019.75 602.75 2993.28 596.135C2964.93 589.519 2941.3 582.667 2922.4 575.579C2903.5 568.019 2887.2 556.441 2873.49 540.847C2859.79 524.781 2852.94 503.28 2852.94 476.345C2852.94 453.663 2859.08 433.108 2871.37 414.679C2884.13 395.777 2902.56 380.892 2926.66 370.024C2951.23 359.155 2980.29 353.721 3013.84 353.721C3063.46 353.721 3102.44 366.007 3130.79 390.579C3159.62 415.151 3176.16 447.757 3180.41 488.395H3068.42C3066.53 474.692 3060.38 463.823 3049.99 455.79C3040.07 447.757 3026.83 443.74 3010.3 443.74C2996.12 443.74 2985.25 446.575 2977.69 452.246C2970.13 457.444 2966.35 464.768 2966.35 474.219C2966.35 485.56 2972.26 494.066 2984.07 499.736C2996.36 505.407 3015.26 511.077 3040.77 516.748C3070.07 524.308 3093.94 531.869 3112.36 539.43C3130.79 546.518 3146.86 558.331 3160.56 574.87C3174.74 590.937 3182.06 612.674 3182.54 640.081C3182.54 663.236 3175.92 684.027 3162.69 702.457C3149.93 720.413 3131.27 734.589 3106.69 744.985C3082.59 755.381 3054.48 760.579 3022.35 760.579ZM3629.53 550.771C3629.53 562.112 3628.82 573.925 3627.4 586.211H3353.09C3354.98 610.784 3362.78 629.685 3376.48 642.916C3390.66 655.675 3407.9 662.054 3428.22 662.054C3458.47 662.054 3479.49 649.296 3491.31 623.778H3620.31C3613.7 649.768 3601.65 673.159 3584.16 693.951C3567.15 714.743 3545.65 731.045 3519.66 742.859C3493.67 754.672 3464.61 760.579 3432.48 760.579C3393.73 760.579 3359.23 752.31 3328.99 735.771C3298.75 719.232 3275.12 695.605 3258.11 664.89C3241.1 634.174 3232.59 598.261 3232.59 557.15C3232.59 516.039 3240.86 480.126 3257.4 449.411C3274.41 418.695 3298.04 395.068 3328.28 378.529C3358.52 361.99 3393.26 353.721 3432.48 353.721C3470.75 353.721 3504.78 361.754 3534.55 377.821C3564.32 393.887 3587.47 416.805 3604.01 446.575C3621.02 476.345 3629.53 511.077 3629.53 550.771ZM3505.48 518.874C3505.48 498.082 3498.4 481.543 3484.22 469.257C3470.04 456.971 3452.32 450.828 3431.06 450.828C3410.74 450.828 3393.49 456.735 3379.32 468.549C3365.61 480.362 3357.11 497.137 3353.8 518.874H3505.48Z" fill="#1D1D1D" />
	<path d="M2606.18 359.391L2499.15 754.909H2365.18L2302.81 498.319L2238.3 754.909H2105.05L1997.31 359.391H2118.52L2174.51 642.208L2241.14 359.391H2369.43L2436.77 640.79L2492.06 359.391H2606.18Z" fill="#FF9800" />
	<path d="M710.937 777.404H140.797C122.365 777.411 104.113 773.785 87.0826 766.735C70.0524 759.684 54.5784 749.347 41.545 736.313C28.5117 723.279 18.1743 707.805 11.1238 690.775C4.07334 673.744 0.447861 655.491 0.454599 637.059V207.255C0.454599 170.033 15.2407 134.336 41.5601 108.016C67.8795 81.6964 103.576 66.9101 140.797 66.9101H570.594C607.816 66.9101 643.512 81.6964 669.832 108.016C696.151 134.336 710.937 170.033 710.937 207.255V777.404Z" fill="#1D1D1D" />
	<rect opacity="0.7" x="112" y="526.571" width="139.429" height="139.429" rx="60" fill="white" />
	<rect x="286.286" y="178" width="139.429" height="139.429" rx="60" fill="#FF9800" />
	<rect x="460.571" y="352.286" width="139.429" height="139.429" rx="60" fill="#FF9800" />
	<rect x="460.571" y="178" width="139.429" height="139.429" rx="60" fill="#FF9800" />
	<rect opacity="0.9" x="112" y="178" width="139.429" height="139.429" rx="60" fill="white" />
	<rect opacity="0.9" x="460.571" y="526.571" width="139.429" height="139.429" rx="60" fill="white" />
	<rect opacity="0.9" x="286.286" y="352.286" width="139.429" height="139.429" rx="60" fill="white" />
	<rect opacity="0.8" x="112" y="352.286" width="139.429" height="139.429" rx="60" fill="white" />
	<rect opacity="0.8" x="286.286" y="526.571" width="139.429" height="139.429" rx="60" fill="white" />
</svg>
