<svg width="131" height="21" viewBox="0 0 131 21" fill="none" xmlns="http://www.w3.org/2000/svg">
	<path d="M0.624 20V3.2H4.224V16.76H14.256V20H0.624ZM18.0549 20L25.8549 3.2H29.3589L37.1349 20H33.3669L28.6869 9.92C28.5429 9.6 28.3989 9.28 28.2549 8.96C28.1109 8.624 27.9749 8.288 27.8469 7.952C27.7189 7.616 27.5909 7.28 27.4629 6.944C27.3509 6.608 27.2469 6.28 27.1509 5.96L27.9429 5.936C27.8469 6.288 27.7349 6.64 27.6069 6.992C27.4789 7.328 27.3429 7.664 27.1989 8C27.0709 8.32 26.9349 8.648 26.7909 8.984C26.6469 9.304 26.4949 9.64 26.3349 9.992L21.6789 20H18.0549ZM21.6069 16.64L22.8309 13.736H32.2149L32.9109 16.64H21.6069ZM42.0849 20V3.2H51.3729C52.4129 3.2 53.3649 3.44 54.2289 3.92C55.0929 4.384 55.7809 5.024 56.2929 5.84C56.8049 6.656 57.0609 7.576 57.0609 8.6C57.0609 9.672 56.7889 10.64 56.2449 11.504C55.7009 12.368 54.9729 13.048 54.0609 13.544C53.1489 14.04 52.1329 14.288 51.0129 14.288H45.6849V20H42.0849ZM45.6369 11.048H50.4849C50.9969 11.048 51.4609 10.944 51.8769 10.736C52.3089 10.528 52.6449 10.24 52.8849 9.872C53.1409 9.488 53.2689 9.072 53.2689 8.624C53.2689 8.192 53.1409 7.816 52.8849 7.496C52.6449 7.16 52.3089 6.904 51.8769 6.728C51.4609 6.536 50.9969 6.44 50.4849 6.44H45.6369V11.048Z" fill="white" />
	<path d="M65.8644 20L61.3044 7.304H64.9524L67.7124 16.208L67.2084 16.16L70.4964 9.056H72.8964L76.3044 16.16L75.8484 16.208L78.8244 7.304H82.4004L77.5764 20H75.0324L71.0724 11.408L72.4404 11.288L68.4084 20H65.8644ZM88.0856 20V7.304H91.4696V20H88.0856ZM89.7656 4.52C89.1096 4.52 88.5976 4.36 88.2296 4.04C87.8616 3.72 87.6776 3.264 87.6776 2.672C87.6776 2.128 87.8616 1.688 88.2296 1.352C88.6136 1 89.1256 0.823999 89.7656 0.823999C90.4216 0.823999 90.9336 0.991999 91.3016 1.328C91.6696 1.648 91.8536 2.096 91.8536 2.672C91.8536 3.232 91.6616 3.68 91.2776 4.016C90.9096 4.352 90.4056 4.52 89.7656 4.52ZM104.911 20.24C103.423 20.24 102.079 20.048 100.879 19.664C99.6948 19.264 98.7268 18.664 97.9748 17.864L100.087 15.944C100.679 16.488 101.391 16.912 102.223 17.216C103.055 17.52 103.975 17.672 104.983 17.672C105.319 17.672 105.647 17.656 105.967 17.624C106.287 17.576 106.591 17.504 106.879 17.408C107.167 17.312 107.391 17.184 107.551 17.024C107.727 16.864 107.815 16.664 107.815 16.424C107.815 16.04 107.527 15.76 106.951 15.584C106.615 15.456 106.199 15.352 105.703 15.272C105.207 15.176 104.695 15.088 104.167 15.008C103.191 14.816 102.319 14.616 101.551 14.408C100.799 14.2 100.167 13.92 99.6548 13.568C99.2548 13.248 98.9348 12.88 98.6948 12.464C98.4708 12.032 98.3588 11.512 98.3588 10.904C98.3588 10.296 98.5188 9.76 98.8388 9.296C99.1748 8.816 99.6308 8.408 100.207 8.072C100.783 7.736 101.447 7.48 102.199 7.304C102.951 7.128 103.759 7.04 104.623 7.04C105.375 7.04 106.151 7.112 106.951 7.256C107.751 7.4 108.511 7.616 109.231 7.904C109.951 8.192 110.575 8.56 111.103 9.008L109.351 11.12C108.951 10.848 108.479 10.592 107.935 10.352C107.407 10.096 106.831 9.904 106.207 9.776C105.599 9.632 104.999 9.56 104.407 9.56C104.071 9.56 103.743 9.584 103.423 9.632C103.103 9.664 102.807 9.728 102.535 9.824C102.263 9.904 102.047 10.024 101.887 10.184C101.743 10.328 101.671 10.504 101.671 10.712C101.671 10.856 101.711 10.992 101.791 11.12C101.887 11.248 102.015 11.368 102.175 11.48C102.463 11.656 102.879 11.808 103.423 11.936C103.967 12.048 104.583 12.168 105.271 12.296C106.343 12.472 107.271 12.688 108.055 12.944C108.855 13.184 109.503 13.488 109.999 13.856C110.399 14.144 110.695 14.472 110.887 14.84C111.079 15.192 111.175 15.608 111.175 16.088C111.175 16.936 110.903 17.672 110.359 18.296C109.815 18.92 109.079 19.4 108.151 19.736C107.223 20.072 106.143 20.24 104.911 20.24ZM123.808 20.24C122.176 20.24 120.736 19.96 119.488 19.4C118.256 18.84 117.296 18.072 116.608 17.096C115.92 16.104 115.576 14.984 115.576 13.736C115.576 12.712 115.776 11.792 116.176 10.976C116.592 10.144 117.16 9.44 117.88 8.864C118.6 8.288 119.432 7.84 120.376 7.52C121.336 7.2 122.344 7.04 123.4 7.04C124.44 7.04 125.408 7.2 126.304 7.52C127.2 7.824 127.984 8.256 128.656 8.816C129.328 9.376 129.848 10.04 130.216 10.808C130.584 11.576 130.752 12.424 130.72 13.352L130.696 14.528H118.072L117.52 12.32H127.888L127.504 12.752V12.224C127.44 11.76 127.216 11.352 126.832 11C126.448 10.648 125.96 10.376 125.368 10.184C124.776 9.976 124.136 9.872 123.448 9.872C122.568 9.872 121.776 10 121.072 10.256C120.368 10.496 119.808 10.88 119.392 11.408C118.992 11.936 118.792 12.624 118.792 13.472C118.792 14.224 119.016 14.896 119.464 15.488C119.928 16.064 120.576 16.512 121.408 16.832C122.256 17.152 123.232 17.312 124.336 17.312C125.392 17.312 126.264 17.184 126.952 16.928C127.64 16.672 128.208 16.4 128.656 16.112L130.168 18.368C129.64 18.752 129.032 19.088 128.344 19.376C127.656 19.648 126.928 19.856 126.16 20C125.392 20.16 124.608 20.24 123.808 20.24Z" fill="#FF9800" />
</svg>
